<svg xmlns="http://www.w3.org/2000/svg" viewBox="0 0 500 500"><path d="M250 1.709C112.166 1.709.244 112.975.244 249.999.244 387.024 112.166 498.29 250 498.29c137.833 0 249.756-111.265 249.756-248.29C499.756 112.975 387.833 1.71 250 1.71zm0 17.27c128.445 0 232.384 103.329 232.384 231.02 0 127.692-103.939 231.022-232.384 231.022-128.446 0-232.385-103.33-232.385-231.022 0-127.691 103.94-231.02 232.385-231.02zm114.587 310.333c-27.823-33.263-55.305-66.096-82.744-98.907-8.835-10.574-17.783-21.006-26.532-31.621-1.716-2.115-2.638-1.847-4.255 0-10.82 12.11-21.724 24.149-32.615 36.216q-16.527 18.37-33.04 36.76-23.74 26.376-47.506 52.738c-.78.867-1.468 1.804-2.333 2.862a157.249 156.326 0 01-7.686-13.66c-1-1.911-.709-3.152.646-4.632 6.97-7.662 13.883-15.373 20.803-23.07q23.135-25.721 46.271-51.456 22.327-24.79 44.669-49.56c3.942-4.37 7.927-8.697 11.77-13.152 1.418-1.621 2.198-1.41 3.467.12q28.567 34.299 57.212 68.527 27.05 32.347 54.127 64.672c.752.902 1.468 1.833 2.22 2.742 4.53 5.526 4.559 5.54 1.177 11.645-1.716 3.143-3.595 6.252-5.651 9.776z" fill="#008aa4"/></svg>
